<?xml version="1.0" standalone="no"?><!DOCTYPE svg PUBLIC "-//W3C//DTD SVG 1.1//EN" "http://www.w3.org/Graphics/SVG/1.1/DTD/svg11.dtd"><svg t="1547796786712" class="icon" style="" viewBox="0 0 1024 1024" version="1.1" xmlns="http://www.w3.org/2000/svg" p-id="3139" xmlns:xlink="http://www.w3.org/1999/xlink" width="100" height="100"><defs><style type="text/css"></style></defs><path d="M974.848 527.5136c-11.1104-16.384-34.2528-36.3008-81.6128-36.3008h-55.296c0.8704-35.072-1.4848-58.2144-1.4848-58.2144H69.632s-15.8208 147.1488 49.7152 262.7584c41.2672 71.936 66.1504 92.7232 101.5296 128.4096 59.392 59.6992 130.816 59.6992 130.816 59.6992H552.96s71.3728 0 129.8944-57.9584c13.4656-13.7216 26.0608-25.1392 38.3488-38.6048 201.8816-11.1104 253.0816-152.1152 259.2256-170.8544 3.7888-10.24 17.8176-53.8112-5.5808-88.9344z m-58.5216 64.6656l-1.1776 3.4816c-0.256 0.8704-25.4464 84.8384-136.6016 114.1248l8.192-14.0288c24.832-44.1856 38.0416-92.7744 44.7488-136.0896h61.7472c16.384 0 23.3984 3.84 24.832 5.888 3.2256 4.6592 1.4848 18.1248-1.7408 26.624z m-60.3648 342.016H51.8656c-48.4352 52.3776 267.264 85.76 267.264 85.76h269.4656s306.2784-32.1536 267.3664-85.76zM524.5952 370.3808c0.8704 2.9184-8.8064 6.4512-12.032 5.2736-96.8192-60.8256-73.4208-145.7152-10.24-207.7184 48.2816-47.104 84.2752-70.8096 84.5824-145.408-0.3072-6.7072 14.336-7.6288 16.6912-4.6592 119.04 168.8064-147.7632 177.5616-79.0016 352.512z m-174.6944 0c1.1776 2.9184-8.448 6.4512-11.6736 5.2736-96.8704-60.8256-73.728-145.7152-10.24-207.7184 47.9744-47.104 83.968-70.8096 84.224-145.408 0-6.7072 14.6432-7.6288 16.9984-4.6592 119.0912 168.8064-148.0704 177.5616-79.3088 352.512z" p-id="3140" data-spm-anchor-id="a313x.7781069.0.i11" class="selected" fill="#CCCCCC"></path></svg>