<?xml version="1.0" standalone="no"?><!DOCTYPE svg PUBLIC "-//W3C//DTD SVG 1.1//EN" "http://www.w3.org/Graphics/SVG/1.1/DTD/svg11.dtd"><svg t="1547796763827" class="icon" style="" viewBox="0 0 1024 1024" version="1.1" xmlns="http://www.w3.org/2000/svg" p-id="2367" xmlns:xlink="http://www.w3.org/1999/xlink" width="100" height="100"><defs><style type="text/css"></style></defs><path d="M883.5 251.7H144.2c-15.7 0-28.4 12.7-28.4 28.4v557.1c0 15.7 12.7 28.4 28.4 28.4h98.2c0-29.9 24.3-54.2 54.3-54.2 30 0 54.3 24.3 54.3 54.2h108.6c0-29.9 24.3-54.2 54.3-54.2 30 0 54.3 24.3 54.3 54.2h108.6c0-29.9 24.3-54.2 54.3-54.2 30 0 54.3 24.3 54.3 54.2h98.2c15.7 0 28.4-12.7 28.4-28.4V280.1c-0.1-15.7-12.8-28.4-28.5-28.4zM224.3 685.1c0-69.8 56.7-126.4 126.6-126.4-40 0-72.3-32.4-72.3-72.2 0-39.9 32.4-72.2 72.4-72.2s72.4 32.3 72.4 72.2c0 39.9-32.4 72.2-72.3 72.2 69.9 0 126.6 56.6 126.6 126.4H224.3z m343.8-220.6c0-7.9 6.4-14.2 14.2-14.2h170.6c7.9 0 14.2 6.4 14.2 14.2v7.7c0 7.9-6.4 14.2-14.2 14.2H582.3c-7.9 0-14.2-6.4-14.2-14.2v-7.7z m199 188.3c0 7.9-6.4 14.2-14.2 14.2H582.3c-7.9 0-14.2-6.4-14.2-14.2v-7.7c0-7.9 6.4-14.2 14.2-14.2h170.6c7.9 0 14.2 6.4 14.2 14.2v7.7z m18.1-90.3c0 7.9-6.4 14.2-14.2 14.2H582.3c-7.9 0-14.2-6.4-14.2-14.2v-7.7c0-7.9 6.4-14.2 14.2-14.2H771c7.9 0 14.2 6.4 14.2 14.2v7.7z" p-id="2368" data-spm-anchor-id="a313x.7781069.0.i6" class="selected" fill="#CCCCCC"></path></svg>