<?xml version="1.0" standalone="no"?><!DOCTYPE svg PUBLIC "-//W3C//DTD SVG 1.1//EN" "http://www.w3.org/Graphics/SVG/1.1/DTD/svg11.dtd"><svg t="1547796802585" class="icon" style="" viewBox="0 0 1024 1024" version="1.1" xmlns="http://www.w3.org/2000/svg" p-id="3917" xmlns:xlink="http://www.w3.org/1999/xlink" width="100" height="100"><defs><style type="text/css"></style></defs><path d="M938.588 427.698c21.277-14.042 21.912-24.779 21.912-43.382L960.5 254.089c0-35.955-29.4-65.113-65.65-65.113L128.162 188.976c-36.262 0-65.662 29.158-65.662 65.113l0 130.228c0 19.402 1.348 32.47 21.912 43.382 29.85 13.769 65.652 41.677 65.652 86.846 0 58.58-37.062 77.545-64.391 86.665C66.469 613.114 62.5 632.692 62.5 644.684l0 130.228c0 35.955 29.4 65.114 65.662 65.114l766.688 0c36.25 0 65.65-29.159 65.65-65.114L960.5 644.684c0-23.699-5.502-31.22-21.912-43.387-47.805-24.412-65.652-46.15-65.652-86.841C872.935 473.854 889.709 453.629 938.588 427.698zM642.812 503.188c0 6.007-4.877 10.83-10.918 10.83l-98.482 0 0 43.377 98.482 0c6.041 0 10.918 4.834 10.918 10.83l0 21.727c0 5.996-4.877 10.83-10.918 10.83l-98.482 0 0 75.934c0 5.996-4.865 10.819-10.906 10.819l-21.912 0c-6.051 0-10.918-4.823-10.918-10.819l0-75.934-98.482 0c-6.041 0-10.918-4.834-10.918-10.83l0-21.727c0-5.996 4.877-10.83 10.918-10.83l98.395 0 0-43.377-98.482 0c-6.039 0-10.918-4.823-10.918-10.83l0-21.727c0-5.99 4.879-10.819 10.918-10.819l82.883 0-89.92-95.796c-3.881-4.204-3.881-10.913 0-15.117l13.977-15.116c3.793-4.198 10.008-4.198 13.889 0l99.479 105.991 99.381-105.897c3.881-4.204 10.195-4.204 14.076 0l14.062 15.204c3.881 4.203 3.881 11 0 15.204l-89.646 95.527 82.609 0c6.041 0 10.918 4.922 10.918 10.819L642.815 503.188z" p-id="3918" data-spm-anchor-id="a313x.7781069.0.i14" class="" fill="#CCCCCC"></path></svg>