<?xml version="1.0" standalone="no"?><!DOCTYPE svg PUBLIC "-//W3C//DTD SVG 1.1//EN" "http://www.w3.org/Graphics/SVG/1.1/DTD/svg11.dtd"><svg t="1547796814926" class="icon" style="" viewBox="0 0 1026 1024" version="1.1" xmlns="http://www.w3.org/2000/svg" p-id="4090" xmlns:xlink="http://www.w3.org/1999/xlink" width="100.1953125" height="100"><defs><style type="text/css"></style></defs><path d="M722.1248 570.5728" p-id="4091"></path><path d="M950.272 888.32 77.2096 888.32c-41.3696 0-74.8544-33.4848-74.8544-74.752L2.3552 664.1664c82.6368 0 149.6064-55.7056 149.6064-124.416 0-68.7104-66.9696-124.5184-149.6064-124.5184L2.3552 215.9616C2.3552 174.6944 35.84 141.312 77.2096 141.312L950.272 141.312c41.3696 0 74.8544 33.3824 74.8544 74.6496l0 201.728c-7.9872-1.6384-16.384-2.4576-24.8832-2.4576-68.9152 0-124.7232 55.808-124.7232 124.5184 0 68.7104 55.808 124.416 124.7232 124.416 8.4992 0 16.896-0.8192 24.8832-2.4576l0 151.8592C1025.1264 854.8352 991.6416 888.32 950.272 888.32L950.272 888.32zM426.3936 689.0496l201.9328 0 0-49.7664L426.3936 639.2832 426.3936 689.0496 426.3936 689.0496zM426.3936 539.7504l282.7264 0 0-49.7664L426.3936 489.984 426.3936 539.7504 426.3936 539.7504zM301.6704 166.1952l-49.8688 0 0 99.5328 49.8688 0L301.6704 166.1952 301.6704 166.1952zM301.6704 315.5968l-49.8688 0 0 99.6352 49.8688 0L301.6704 315.5968 301.6704 315.5968zM301.6704 464.9984l-49.8688 0 0 99.6352 49.8688 0L301.6704 464.9984 301.6704 464.9984zM301.6704 614.4l-49.8688 0 0 99.5328 49.8688 0L301.6704 614.4 301.6704 614.4zM301.6704 763.8016l-49.8688 0 0 99.6352 49.8688 0L301.6704 763.8016 301.6704 763.8016zM850.5344 340.48 426.3936 340.48l0 49.7664 424.1408 0L850.5344 340.48 850.5344 340.48zM850.5344 340.48" p-id="4092" data-spm-anchor-id="a313x.7781069.0.i19" class="selected" fill="#CCCCCC"></path></svg>