<?xml version="1.0" standalone="no"?><!DOCTYPE svg PUBLIC "-//W3C//DTD SVG 1.1//EN" "http://www.w3.org/Graphics/SVG/1.1/DTD/svg11.dtd"><svg t="1547796844558" class="icon" style="" viewBox="0 0 1170 1024" version="1.1" xmlns="http://www.w3.org/2000/svg" p-id="4871" xmlns:xlink="http://www.w3.org/1999/xlink" width="114.2578125" height="100"><defs><style type="text/css"></style></defs><path d="M1060.571429 0h-950.857143C65.828571 0 36.571429 29.257143 36.571429 73.142857v292.571429c0 43.885714 29.257143 73.142857 73.142857 73.142857h73.142857V146.285714h804.571428v292.571429h73.142858c43.885714 0 73.142857-29.257143 73.142857-73.142857V73.142857c0-43.885714-29.257143-73.142857-73.142857-73.142857z" p-id="4872" data-spm-anchor-id="a313x.7781069.0.i27" class="selected" fill="#CCCCCC"></path><path d="M256 219.428571h658.285714v731.428572c0 43.885714-29.257143 73.142857-73.142857 73.142857h-512c-43.885714 0-73.142857-29.257143-73.142857-73.142857V219.428571z m146.285714 292.571429h365.714286V438.857143h-365.714286v73.142857z m0 292.571429h365.714286v-73.142858h-365.714286v73.142858z" p-id="4873" data-spm-anchor-id="a313x.7781069.0.i23" class="" fill="#CCCCCC"></path></svg>