<?xml version="1.0" standalone="no"?><!DOCTYPE svg PUBLIC "-//W3C//DTD SVG 1.1//EN" "http://www.w3.org/Graphics/SVG/1.1/DTD/svg11.dtd"><svg t="1547524033748" class="icon" style="" viewBox="0 0 1024 1024" version="1.1" xmlns="http://www.w3.org/2000/svg" p-id="4764" xmlns:xlink="http://www.w3.org/1999/xlink" width="100" height="100"><defs><style type="text/css"></style></defs><path d="M481.6 253.2v517.3c0 8.2-3 15.4-9 21.4s-13.2 9-21.4 9-15.4-3-21.4-9L271.4 633.6H146.8c-8.2 0-15.4-3-21.4-9-6-6-9-13.1-9-21.4V420.6c0-8.2 3-15.4 9-21.4 6-6 13.1-9 21.4-9h124.6l158.3-158.3c6-6 13.1-9 21.4-9 8.2 0 15.4 3 21.4 9 6.1 5.9 9.1 13 9.1 21.3z m162.3 191.1c13.5 20.9 20.2 43.4 20.2 67.5s-6.7 46.5-20.2 67.3-31.3 35.6-53.5 44.5c-3.2 1.6-7.1 2.4-11.9 2.4-8.2 0-15.4-2.9-21.4-8.8-6-5.9-9-13.1-9-21.6 0-6.7 1.9-12.3 5.7-16.9 3.8-4.6 8.4-8.6 13.8-11.9 5.4-3.3 10.8-7 16.2-10.9 5.4-4 10-9.7 13.8-17.1 3.8-7.4 5.7-16.4 5.7-26.9s-1.9-19.4-5.7-26.9c-3.8-7.4-8.4-13.1-13.8-17.1-5.4-4-10.8-7.6-16.2-10.9s-10-7.3-13.8-11.9-5.7-10.2-5.7-16.9c0-8.6 3-15.8 9-21.6 6-5.9 13.1-8.8 21.4-8.8 4.8 0 8.7 0.8 11.9 2.4 22.2 8.5 40.1 23.2 53.5 44.1z m101.6-66.8c26.9 41.1 40.4 85.8 40.4 134.3s-13.5 93.3-40.4 134.3c-26.9 41.1-62.6 70.9-107 89.6-4.1 1.6-8.1 2.4-11.9 2.4-8.6 0-15.9-3-21.9-9s-9-13.2-9-21.4c0-12.4 6.2-21.7 18.5-28.1 17.7-9.2 29.8-16.2 36.1-20.9 23.5-17.1 41.8-38.6 54.9-64.4 13.2-25.8 19.7-53.3 19.7-82.5 0-29.2-6.6-56.7-19.7-82.5-13.2-25.8-31.5-47.3-54.9-64.4-6.3-4.8-18.4-11.7-36.1-20.9-12.4-6.3-18.5-15.7-18.5-28.1 0-8.2 3-15.4 9-21.4s13.1-9 21.4-9c4.1 0 8.2 0.8 12.4 2.4 44.3 18.7 80 48.6 107 89.6zM847.2 311c40.3 61 60.4 128 60.4 200.9s-20.1 139.9-60.4 200.9-93.8 105.9-160.7 134.8c-4.1 1.6-8.2 2.4-12.4 2.4-8.2 0-15.4-3-21.4-9s-9-13.2-9-21.4c0-11.4 6.2-20.8 18.5-28.1 2.2-1.3 5.8-2.9 10.7-5s8.5-3.7 10.7-5c14.6-7.9 27.6-16 39-24.2 39-28.8 69.4-64.8 91.3-107.9 21.9-43.1 32.8-88.9 32.8-137.4s-10.9-94.3-32.8-137.4c-21.9-43.1-52.3-79.1-91.3-107.9-11.4-8.2-24.4-16.3-39-24.2-2.2-1.3-5.8-2.9-10.7-5s-8.5-3.7-10.7-5c-12.4-7.3-18.5-16.6-18.5-28.1 0-8.2 3-15.4 9-21.4s13.1-9 21.4-9c4.1 0 8.2 0.8 12.4 2.4C753.4 205 806.9 249.9 847.2 311z" p-id="4765" fill="#ffffff"></path></svg>