<?xml version="1.0" standalone="no"?><!DOCTYPE svg PUBLIC "-//W3C//DTD SVG 1.1//EN" "http://www.w3.org/Graphics/SVG/1.1/DTD/svg11.dtd"><svg class="icon" width="200px" height="200.00px" viewBox="0 0 1024 1024" version="1.1" xmlns="http://www.w3.org/2000/svg"><path d="M512 1024C230.4 1024 6.4 793.6 6.4 512S230.4 0 512 0s512 230.4 512 512-230.4 512-512 512zM512 96C288 96 102.4 281.6 102.4 512s185.6 416 409.6 416c230.4 0 416-185.6 416-416S742.4 96 512 96z" fill="#707070" /><path d="M819.2 563.2H204.8c-25.6 0-51.2-25.6-51.2-51.2s19.2-51.2 51.2-51.2h614.4c25.6 0 51.2 19.2 51.2 51.2s-25.6 51.2-51.2 51.2z" fill="#707070" /><path d="M512 870.4c-25.6 0-51.2-19.2-51.2-51.2V204.8c0-25.6 19.2-51.2 51.2-51.2s51.2 19.2 51.2 51.2v614.4c0 25.6-25.6 51.2-51.2 51.2z" fill="#707070" /></svg>